<?xml version="1.0" standalone="no"?>
<!DOCTYPE svg PUBLIC "-//W3C//DTD SVG 20010904//EN"
 "http://www.w3.org/TR/2001/REC-SVG-20010904/DTD/svg10.dtd">
<svg version="1.0" xmlns="http://www.w3.org/2000/svg"
 width="48.000000pt" height="48.000000pt" viewBox="0 0 48.000000 48.000000"
 preserveAspectRatio="xMidYMid meet">

<g transform="translate(0.000000,48.000000) scale(0.100000,-0.100000)"
fill="#000000" stroke="none">
<path d="M0 240 l0 -240 240 0 240 0 0 240 0 240 -240 0 -240 0 0 -240z m410
215 c51 -26 64 -57 50 -113 -6 -26 -20 -66 -30 -90 -21 -48 -22 -58 -2 -54 8
2 21 1 29 -3 27 -10 -14 -45 -52 -45 -31 0 -33 -2 -39 -50 -8 -60 -34 -90 -75
-90 -38 0 -61 32 -61 85 l0 41 -39 -4 c-22 -2 -42 1 -46 8 -5 8 -10 8 -20 0
-33 -27 -72 29 -101 144 -19 78 -13 124 21 156 21 20 32 22 87 18 35 -2 74 -2
86 1 54 14 163 11 192 -4z"/>
<path d="M364 410 c33 -37 36 -45 36 -103 1 -59 1 -61 15 -36 19 35 36 114 29
133 -7 18 -64 46 -94 46 -21 0 -20 -3 14 -40z"/>
<path d="M64 432 c-40 -26 -41 -85 -3 -199 26 -80 39 -90 69 -58 19 20 21 29
13 47 -13 28 -2 164 15 196 12 21 12 22 -35 22 -26 0 -53 -4 -59 -8z"/>
<path d="M202 433 c-13 -5 -42 -55 -42 -73 0 -7 8 -9 20 -5 10 3 28 1 40 -5
16 -9 20 -21 20 -61 0 -28 -4 -59 -10 -69 -7 -13 -6 -19 5 -24 11 -4 15 -22
15 -66 0 -69 12 -100 38 -100 37 0 53 24 59 85 3 33 10 65 15 71 5 8 -1 30
-17 60 -30 57 -29 95 3 109 25 11 26 14 9 35 -33 43 -106 63 -155 43z"/>
<path d="M370 330 c0 -5 -7 -10 -15 -10 -20 0 -18 -17 5 -60 l19 -35 -1 58
c-1 31 -3 57 -5 57 -2 0 -3 -4 -3 -10z"/>
<path d="M160 275 c0 -43 4 -56 19 -64 15 -8 20 -6 30 15 6 14 11 40 11 59 0
26 -3 33 -15 29 -8 -4 -15 -1 -15 5 0 6 -7 11 -15 11 -12 0 -15 -13 -15 -55z"/>
<path d="M161 176 c-10 -12 -8 -13 8 -9 12 3 21 9 21 14 0 14 -16 11 -29 -5z"/>
<path d="M206 164 c-17 -12 -17 -14 -4 -14 9 0 20 5 23 11 11 17 2 18 -19 3z"/>
</g>
</svg>
